<svg width="25" height="21" viewBox="0 0 25 21" fill="none" xmlns="http://www.w3.org/2000/svg">
<path d="M21.25 0H3.75C2.75544 0 1.80161 0.400089 1.09835 1.11225C0.395088 1.82442 0 2.79032 0 3.79747V16.4557C0 17.4628 0.395088 18.4287 1.09835 19.1409C1.80161 19.8531 2.75544 20.2532 3.75 20.2532H21.25C22.2446 20.2532 23.1984 19.8531 23.9017 19.1409C24.6049 18.4287 25 17.4628 25 16.4557V3.79747C25 2.79032 24.6049 1.82442 23.9017 1.11225C23.1984 0.400089 22.2446 0 21.25 0ZM21.25 2.53165L13.125 8.18987C12.935 8.30097 12.7194 8.35946 12.5 8.35946C12.2806 8.35946 12.065 8.30097 11.875 8.18987L3.75 2.53165H21.25Z" fill="#3EC5FA"/>
</svg>
