<svg width="20" height="20" viewBox="0 0 20 20" fill="none" xmlns="http://www.w3.org/2000/svg">
<path d="M19.9955 6.12814C19.9955 6.12598 19.9957 6.12381 19.9957 6.12165C19.9957 3.49223 17.8642 1.36072 15.2348 1.36072C12.6053 1.36072 10.4739 3.49219 10.4739 6.12165C10.4739 8.75111 12.6056 10.8826 15.2348 10.8826C15.7752 10.8826 16.2925 10.7884 16.7765 10.6224C15.7054 16.7671 10.9136 20.7299 15.3555 17.4685C20.2809 13.8519 20.001 6.26691 19.9955 6.12814Z" fill="white"/>
<path d="M4.76093 10.8825C5.30131 10.8825 5.81859 10.7883 6.30284 10.6224C5.23144 16.7671 0.439686 20.7298 4.88162 17.4684C9.80706 13.8519 9.52713 6.26691 9.52158 6.12814C9.52158 6.12598 9.52181 6.12381 9.52181 6.12165C9.52181 3.49223 7.39034 1.36072 4.76093 1.36072C2.13147 1.36072 0 3.49219 0 6.12165C0 8.75111 2.13171 10.8825 4.76093 10.8825Z" fill="white"/>
</svg>
