<svg width="38" height="46" viewBox="0 0 38 46" fill="none" xmlns="http://www.w3.org/2000/svg">
<path d="M23.1668 2.16669H6.50016C5.39509 2.16669 4.33529 2.60567 3.55388 3.38708C2.77248 4.16848 2.3335 5.22828 2.3335 6.33335V39.6667C2.3335 40.7718 2.77248 41.8316 3.55388 42.613C4.33529 43.3944 5.39509 43.8334 6.50016 43.8334H31.5002C32.6052 43.8334 33.665 43.3944 34.4464 42.613C35.2278 41.8316 35.6668 40.7718 35.6668 39.6667V14.6667L23.1668 2.16669Z" stroke="#3EC5FA" stroke-width="3" stroke-linecap="round" stroke-linejoin="round"/>
<path d="M23.1665 2.16669V14.6667H35.6665" stroke="#3EC5FA" stroke-width="3" stroke-linecap="round" stroke-linejoin="round"/>
<path d="M27.3332 25.0833H10.6665" stroke="#3EC5FA" stroke-width="3" stroke-linecap="round" stroke-linejoin="round"/>
<path d="M27.3332 33.4167H10.6665" stroke="#3EC5FA" stroke-width="3" stroke-linecap="round" stroke-linejoin="round"/>
<path d="M14.8332 16.75H12.7498H10.6665" stroke="#3EC5FA" stroke-width="3" stroke-linecap="round" stroke-linejoin="round"/>
</svg>
