<svg width="38" height="37" viewBox="0 0 38 37" fill="none" xmlns="http://www.w3.org/2000/svg">
<circle cx="18.8206" cy="18.4992" r="18.4977" fill="#3EC5FA"/>
<path d="M25.7164 15.6515C25.7086 15.0678 25.5993 14.4898 25.3934 13.9436C25.2149 13.4828 24.9422 13.0643 24.5928 12.7149C24.2433 12.3654 23.8249 12.0927 23.3641 11.9142C22.8248 11.7118 22.2551 11.6023 21.6792 11.5905C20.9378 11.5573 20.7027 11.5481 18.8206 11.5481C16.9384 11.5481 16.6972 11.5481 15.9611 11.5905C15.3855 11.6024 14.8161 11.7119 14.277 11.9142C13.8162 12.0926 13.3977 12.3653 13.0482 12.7147C12.6988 13.0642 12.4261 13.4827 12.2477 13.9436C12.0449 14.4824 11.9356 15.052 11.9248 15.6276C11.8916 16.3698 11.8816 16.6049 11.8816 18.4871C11.8816 20.3692 11.8816 20.6097 11.9248 21.3465C11.9363 21.923 12.045 22.4918 12.2477 23.0321C12.4264 23.4928 12.6993 23.9112 13.0488 24.2605C13.3984 24.6098 13.817 24.8823 14.2778 25.0607C14.8154 25.2713 15.3849 25.3886 15.9619 25.4075C16.7041 25.4407 16.9392 25.4507 18.8213 25.4507C20.7035 25.4507 20.9447 25.4507 21.6808 25.4075C22.2566 25.3962 22.8264 25.287 23.3656 25.0846C23.8263 24.9058 24.2446 24.6331 24.594 24.2837C24.9434 23.9343 25.2162 23.5159 25.395 23.0552C25.5977 22.5157 25.7063 21.9469 25.7179 21.3696C25.751 20.6282 25.7611 20.3931 25.7611 18.5102C25.7595 16.628 25.7595 16.3891 25.7164 15.6515ZM18.8159 22.0463C16.8475 22.0463 15.2528 20.4517 15.2528 18.4832C15.2528 16.5147 16.8475 14.9201 18.8159 14.9201C19.7609 14.9201 20.6672 15.2955 21.3354 15.9637C22.0037 16.6319 22.3791 17.5382 22.3791 18.4832C22.3791 19.4282 22.0037 20.3345 21.3354 21.0027C20.6672 21.6709 19.7609 22.0463 18.8159 22.0463ZM22.5209 15.6191C22.4117 15.6192 22.3037 15.5978 22.2028 15.5561C22.102 15.5144 22.0103 15.4532 21.9331 15.376C21.856 15.2988 21.7948 15.2072 21.7531 15.1064C21.7113 15.0055 21.6899 14.8974 21.69 14.7883C21.69 14.6792 21.7115 14.5712 21.7532 14.4705C21.795 14.3697 21.8561 14.2782 21.9333 14.2011C22.0104 14.1239 22.1019 14.0628 22.2027 14.021C22.3034 13.9793 22.4114 13.9578 22.5205 13.9578C22.6296 13.9578 22.7375 13.9793 22.8383 14.021C22.9391 14.0628 23.0306 14.1239 23.1077 14.2011C23.1848 14.2782 23.246 14.3697 23.2877 14.4705C23.3295 14.5712 23.351 14.6792 23.351 14.7883C23.351 15.2476 22.9795 15.6191 22.5209 15.6191Z" fill="white"/>
<path d="M18.8159 20.7978C20.0942 20.7978 21.1305 19.7615 21.1305 18.4832C21.1305 17.205 20.0942 16.1687 18.8159 16.1687C17.5377 16.1687 16.5014 17.205 16.5014 18.4832C16.5014 19.7615 17.5377 20.7978 18.8159 20.7978Z" fill="white"/>
</svg>
