<svg width="25" height="32" viewBox="0 0 25 32" fill="none" xmlns="http://www.w3.org/2000/svg">
<path d="M12.5 0C9.186 0.00392252 6.00885 1.32648 3.66549 3.67757C1.32214 6.02865 0.00392292 9.21628 1.32987e-05 12.5412C-0.00395589 15.2583 0.880672 17.9018 2.51819 20.0659C2.51819 20.0659 2.8591 20.5163 2.91478 20.5813L12.5 31.9231L22.0898 20.5756C22.1398 20.5151 22.4818 20.0659 22.4818 20.0659L22.4829 20.0625C24.1197 17.8993 25.0039 15.2571 25 12.5412C24.9961 9.21628 23.6779 6.02865 21.3345 3.67757C18.9912 1.32648 15.814 0.00392252 12.5 0ZM12.5 17.1016C11.601 17.1016 10.7222 16.8342 9.97468 16.3331C9.22719 15.832 8.64459 15.1197 8.30055 14.2864C7.95652 13.4531 7.8665 12.5361 8.04189 11.6515C8.21728 10.7669 8.65019 9.95428 9.28588 9.31649C9.92157 8.6787 10.7315 8.24436 11.6132 8.0684C12.495 7.89243 13.4089 7.98274 14.2395 8.32791C15.07 8.67308 15.7799 9.2576 16.2794 10.0076C16.7789 10.7575 17.0455 11.6392 17.0455 12.5412C17.0439 13.7502 16.5646 14.9093 15.7125 15.7643C14.8603 16.6192 13.7051 17.1001 12.5 17.1016Z" fill="#3EC5FA"/>
</svg>
