<svg width="38" height="37" viewBox="0 0 38 37" fill="none" xmlns="http://www.w3.org/2000/svg">
<circle cx="18.6591" cy="18.5007" r="18.4977" fill="#3EC5FA"/>
<g clip-path="url(#clip0_1_319)">
<path d="M27.6329 13.0572C26.9893 13.3423 26.2979 13.535 25.5711 13.6221C26.3211 13.1734 26.8821 12.4671 27.1496 11.6352C26.445 12.0537 25.6739 12.3482 24.8698 12.5061C24.329 11.9287 23.6127 11.546 22.8322 11.4174C22.0516 11.2888 21.2504 11.4215 20.553 11.7949C19.8556 12.1683 19.301 12.7615 18.9753 13.4824C18.6495 14.2033 18.5709 15.0116 18.7516 15.7817C17.324 15.7101 15.9273 15.339 14.6524 14.6926C13.3774 14.0462 12.2526 13.139 11.351 12.0298C11.0427 12.5616 10.8654 13.1782 10.8654 13.8349C10.8651 14.426 11.0107 15.0081 11.2892 15.5295C11.5678 16.0509 11.9708 16.4955 12.4624 16.8238C11.8923 16.8056 11.3347 16.6516 10.8361 16.3744V16.4207C10.8361 17.2498 11.1229 18.0534 11.6479 18.6951C12.1728 19.3369 12.9037 19.7772 13.7164 19.9414C13.1875 20.0846 12.633 20.1056 12.0947 20.0031C12.324 20.7165 12.7707 21.3403 13.3721 21.7873C13.9736 22.2342 14.6998 22.4819 15.449 22.4956C14.1772 23.4941 12.6064 24.0357 10.9895 24.0333C10.7031 24.0334 10.4169 24.0166 10.1324 23.9832C11.7737 25.0385 13.6843 25.5985 15.6355 25.5963C22.2408 25.5963 25.8517 20.1256 25.8517 15.381C25.8517 15.2268 25.8478 15.0711 25.8409 14.917C26.5433 14.409 27.1495 13.78 27.6313 13.0595L27.6329 13.0572Z" fill="white"/>
</g>
<defs>
<clipPath id="clip0_1_319">
<rect width="18.4977" height="18.4977" fill="white" transform="translate(9.41028 9.25195)"/>
</clipPath>
</defs>
</svg>
