<svg width="38" height="37" viewBox="0 0 38 37" fill="none" xmlns="http://www.w3.org/2000/svg">
<circle cx="18.9819" cy="18.4977" r="18.4977" fill="#3EC5FA"/>
<g clip-path="url(#clip0_1_324)">
<path d="M27.8455 14.2639C27.7408 13.8903 27.5368 13.552 27.2551 13.2851C26.9656 13.01 26.6106 12.8131 26.2239 12.7132C24.7764 12.3317 18.9774 12.3317 18.9774 12.3317C16.5598 12.3042 14.1429 12.4252 11.7401 12.694C11.3534 12.8012 10.9991 13.0025 10.7089 13.2797C10.4237 13.5541 10.2172 13.8924 10.1093 14.2632C9.85006 15.6596 9.72412 17.0774 9.73314 18.4976C9.72389 19.9165 9.84952 21.3339 10.1093 22.7321C10.2149 23.1012 10.4206 23.4381 10.7066 23.7101C10.9925 23.9822 11.3486 24.1787 11.7401 24.2828C13.2069 24.6635 18.9774 24.6635 18.9774 24.6635C21.398 24.6911 23.8181 24.5701 26.2239 24.3013C26.6106 24.2014 26.9656 24.0045 27.2551 23.7294C27.5403 23.4573 27.743 23.119 27.8447 22.7506C28.1107 21.3547 28.24 19.9363 28.2309 18.5153C28.2509 17.0884 28.1217 15.6633 27.8455 14.2632V14.2639ZM17.1338 21.1366V15.8594L21.9586 18.4984L17.1338 21.1366Z" fill="white"/>
</g>
<defs>
<clipPath id="clip0_1_324">
<rect width="18.4977" height="18.4977" fill="white" transform="translate(9.73315 9.24878)"/>
</clipPath>
</defs>
</svg>
